<svg width="20" height="16" viewBox="0 0 20 16" fill="none" xmlns="http://www.w3.org/2000/svg">
<path d="M14.2849 10.6495L16.6353 1.44657H19.2066V0H15.5118L14.9577 2.16943L0 2.15873L1.59023 10.6494H14.2849V10.6495ZM14.5883 3.61574L13.1614 9.2029H2.791L1.74286 3.60655L14.5883 3.61574Z" fill="white"/>
<path d="M12.3043 15.9215C13.5799 15.9215 14.6176 14.8838 14.6176 13.6082C14.6176 12.3326 13.5799 11.2949 12.3043 11.2949H3.58871C2.31315 11.2949 1.27539 12.3326 1.27539 13.6082C1.27539 14.8838 2.31313 15.9215 3.58871 15.9215C4.86428 15.9215 5.90201 14.8838 5.90201 13.6082C5.90201 13.3019 5.84199 13.0093 5.73337 12.7415H10.1596C10.051 13.0093 9.99099 13.3019 9.99099 13.6082C9.99101 14.8838 11.0287 15.9215 12.3043 15.9215ZM4.45544 13.6082C4.45544 14.0861 4.06663 14.4749 3.58871 14.4749C3.11079 14.4749 2.72196 14.0861 2.72196 13.6082C2.72196 13.1303 3.11077 12.7415 3.58871 12.7415C4.06663 12.7415 4.45544 13.1303 4.45544 13.6082ZM13.1711 13.6082C13.1711 14.0861 12.7822 14.4749 12.3043 14.4749C11.8264 14.4749 11.4376 14.0861 11.4376 13.6082C11.4376 13.1303 11.8264 12.7415 12.3043 12.7415C12.7822 12.7415 13.1711 13.1303 13.1711 13.6082Z" fill="white"/>
</svg>
