<svg xmlns="http://www.w3.org/2000/svg" width="24" height="24" viewBox="0 0 24 24">
  <g id="Group_14808" data-name="Group 14808" transform="translate(-1356 -6281)">
    <g id="noun_Mail_1571627" transform="translate(1361.951 6288.972)">
      <g id="Group_1586" data-name="Group 1586" transform="translate(0 0)">
        <path id="Path_8875" data-name="Path 8875" d="M8.291,973.362A1.3,1.3,0,0,0,7,974.653v5.735a1.3,1.3,0,0,0,1.291,1.291h9.751a1.3,1.3,0,0,0,1.291-1.291v-5.735a1.3,1.3,0,0,0-1.291-1.291Zm.108.86h9.536l-4.486,3.907a.4.4,0,0,1-.556,0L8.4,974.222Zm-.538.672,3.043,2.644L7.86,980.379Zm10.611,0v5.485l-3.034-2.845,3.034-2.639Zm-3.688,3.2,2.89,2.715H8.653l2.9-2.711.771.668a1.291,1.291,0,0,0,1.685,0Z" transform="translate(-7 -973.362)" fill="#fff"/>
      </g>
    </g>
    <g id="Ellipse_93" data-name="Ellipse 93" transform="translate(1356 6281)" fill="none" stroke="#fff" stroke-width="1.7">
      <circle cx="12" cy="12" r="12" stroke="none"/>
      <circle cx="12" cy="12" r="11.15" fill="none"/>
    </g>
  </g>
</svg>
