<svg width="20" height="20" viewBox="0 0 20 20" fill="none" xmlns="http://www.w3.org/2000/svg">
<g clip-path="url(#clip0_2116_4854)">
<path d="M13.3395 0.200195H5.66053C4.15962 0.201339 2.7205 0.798082 1.65919 1.85939C0.597887 2.9207 0.00114373 4.35981 0 5.86072V13.5397C0.000914987 15.0407 0.597557 16.4801 1.65889 17.5416C2.72022 18.6031 4.15947 19.1999 5.66053 19.2011H13.3395C14.8405 19.1997 16.2796 18.6028 17.3409 17.5413C18.4021 16.4799 18.9989 15.0407 19 13.5397V5.86072C18.9993 4.35967 18.4027 2.92029 17.3413 1.85888C16.2799 0.797478 14.8405 0.200882 13.3395 0.200195ZM17.0896 13.5397C17.0893 14.5342 16.6942 15.4879 15.9909 16.1911C15.2877 16.8943 14.334 17.2895 13.3395 17.2897H5.66053C5.1681 17.2897 4.6805 17.1927 4.22557 17.0043C3.77064 16.8158 3.35729 16.5396 3.00913 16.1913C2.66097 15.8431 2.38482 15.4297 2.19646 14.9747C2.00809 14.5197 1.9112 14.0321 1.91131 13.5397V5.86072C1.9112 5.36834 2.0081 4.88075 2.19648 4.42583C2.38485 3.9709 2.66101 3.55755 3.00918 3.20938C3.35735 2.86121 3.77071 2.58505 4.22563 2.39667C4.68056 2.20829 5.16814 2.1114 5.66053 2.11151H13.3395C14.3338 2.11174 15.2872 2.50682 15.9903 3.20988C16.6934 3.91295 17.0885 4.86644 17.0887 5.86072L17.0896 13.5397Z" fill="#333333"/>
<path d="M9.50048 4.78838C6.79026 4.78838 4.58789 6.99161 4.58789 9.70096C4.58789 12.4103 6.79113 14.6135 9.50048 14.6135C12.2098 14.6135 14.4131 12.4103 14.4131 9.70096C14.4131 6.99161 12.2107 4.78838 9.50048 4.78838ZM9.50048 12.7022C8.70449 12.7024 7.94106 12.3863 7.37813 11.8235C6.8152 11.2607 6.49889 10.4974 6.49877 9.70139C6.49866 8.90541 6.81475 8.14198 7.37752 7.57905C7.94029 7.01612 8.70363 6.6998 9.49961 6.69969C10.2956 6.69958 11.059 7.01567 11.622 7.57844C12.1849 8.1412 12.5012 8.90454 12.5013 9.70053C12.5014 10.4965 12.1853 11.2599 11.6226 11.8229C11.0598 12.3858 10.2965 12.7021 9.50048 12.7022ZM14.4234 3.64746C14.6562 3.64763 14.8837 3.7168 15.0771 3.84621C15.2706 3.97563 15.4213 4.15949 15.5103 4.37456C15.5993 4.58963 15.6225 4.82625 15.5771 5.05452C15.5316 5.28279 15.4195 5.49247 15.255 5.65705C15.0904 5.82163 14.8807 5.93373 14.6524 5.97918C14.4242 6.02463 14.1875 6.00139 13.9725 5.9124C13.7574 5.82341 13.5735 5.67266 13.4441 5.4792C13.3147 5.28575 13.2455 5.05827 13.2454 4.82551C13.2454 4.17603 13.6859 3.64746 14.4234 3.64746Z" fill="#333333"/>
</g>
<defs>
<clipPath id="clip0_2116_4854">
<rect width="19.2" height="19.2" fill="white"/>
</clipPath>
</defs>
</svg>
