<svg width="20" height="20" viewBox="0 0 20 20" fill="none" xmlns="http://www.w3.org/2000/svg">
<g clip-path="url(#clip0_2116_4850)">
<path d="M19.2 9.65859C19.2 4.35699 14.9016 0.0585938 9.6 0.0585938C4.2984 0.0585938 0 4.35699 0 9.65859C0 14.4506 3.5104 18.4218 8.1 19.1418V12.4338H5.6624V9.65779H8.1V7.54419C8.1 5.13859 9.5336 3.80899 11.7264 3.80899C12.776 3.80899 13.8752 3.99699 13.8752 3.99699V6.35939H12.664C11.4712 6.35939 11.0992 7.09939 11.0992 7.85859V9.65859H13.7616L13.336 12.4346H11.0992V19.1426C15.6896 18.4218 19.2 14.4498 19.2 9.65859Z" fill="#333333"/>
</g>
<defs>
<clipPath id="clip0_2116_4850">
<rect width="19.2" height="19.2" fill="white"/>
</clipPath>
</defs>
</svg>
