<svg width="20" height="20" viewBox="0 0 20 20" fill="none" xmlns="http://www.w3.org/2000/svg">
<g clip-path="url(#clip0_2116_4848)">
<path d="M0 1.3752C0 0.6156 0.6312 0 1.41 0H17.79C18.5688 0 19.2 0.6156 19.2 1.3752V17.8248C19.2 18.5844 18.5688 19.2 17.79 19.2H1.41C0.6312 19.2 0 18.5844 0 17.8248V1.3752ZM5.9316 16.0728V7.4028H3.0504V16.0728H5.9316ZM4.4916 6.2184C5.496 6.2184 6.1212 5.5536 6.1212 4.7208C6.1032 3.87 5.4972 3.2232 4.5108 3.2232C3.5244 3.2232 2.88 3.8712 2.88 4.7208C2.88 5.5536 3.5052 6.2184 4.4724 6.2184H4.4916ZM10.3812 16.0728V11.2308C10.3812 10.9716 10.4004 10.7124 10.4772 10.5276C10.6848 10.0104 11.1588 9.474 11.9556 9.474C12.9984 9.474 13.4148 10.2684 13.4148 11.4348V16.0728H16.296V11.1C16.296 8.436 14.8752 7.1976 12.9792 7.1976C11.4504 7.1976 10.7652 8.0376 10.3812 8.6292V8.6592H10.362C10.3684 8.64918 10.3748 8.63918 10.3812 8.6292V7.4028H7.5012C7.5372 8.2164 7.5012 16.0728 7.5012 16.0728H10.3812Z" fill="#333333"/>
</g>
<defs>
<clipPath id="clip0_2116_4848">
<rect width="19.2" height="19.2" fill="white"/>
</clipPath>
</defs>
</svg>
