<svg xmlns="http://www.w3.org/2000/svg" width="24" height="24" viewBox="0 0 24 24">
  <g id="Group_14807" data-name="Group 14807" transform="translate(-1356 -6247)">
    <g id="noun_Phone_1147908" transform="translate(1362.445 6253.315)">
      <g id="Group_1585" data-name="Group 1585" transform="translate(0 0)">
        <path id="Path_8874" data-name="Path 8874" d="M-930.557,966.258l-2.162-1.115a1.124,1.124,0,0,0-1.4.309l-.577.739a7.068,7.068,0,0,1-1.638-1.262,7.311,7.311,0,0,1-1.276-1.678l.739-.577a1.138,1.138,0,0,0,.309-1.4l-1.115-2.149a1.114,1.114,0,0,0-.712-.564,1.121,1.121,0,0,0-.9.148l-1.37.913a1.487,1.487,0,0,0-.658,1.329,7.652,7.652,0,0,0,.174,1.3,10.532,10.532,0,0,0,2.806,4.659,10.535,10.535,0,0,0,4.659,2.807,7.888,7.888,0,0,0,1.3.175h.094a1.477,1.477,0,0,0,1.235-.672l.9-1.383a1.093,1.093,0,0,0,.134-.886A1.1,1.1,0,0,0-930.557,966.258Zm-.255,1.155-.9,1.383a.684.684,0,0,1-.6.309,6.266,6.266,0,0,1-1.155-.148,9.639,9.639,0,0,1-4.283-2.6,9.837,9.837,0,0,1-2.605-4.284,6.267,6.267,0,0,1-.148-1.155.673.673,0,0,1,.3-.6l1.37-.913a.325.325,0,0,1,.175-.054.171.171,0,0,1,.081.013.308.308,0,0,1,.2.161l1.115,2.148a.328.328,0,0,1-.081.389l-1.276.994.161.3a8.088,8.088,0,0,0,1.584,2.162,8.375,8.375,0,0,0,2.135,1.558l.3.161,1.007-1.289a.31.31,0,0,1,.389-.08l2.162,1.114a.308.308,0,0,1,.161.2A.516.516,0,0,1-930.812,967.413Z" transform="translate(941.315 -958.527)" fill="#fff"/>
      </g>
    </g>
    <g id="Ellipse_92" data-name="Ellipse 92" transform="translate(1356 6247)" fill="none" stroke="#fff" stroke-width="1.7">
      <circle cx="12" cy="12" r="12" stroke="none"/>
      <circle cx="12" cy="12" r="11.15" fill="none"/>
    </g>
  </g>
</svg>
