<svg width="11" height="9" viewBox="0 0 11 9" fill="none" xmlns="http://www.w3.org/2000/svg">
<g clip-path="url(#clip0_2116_4944)">
<path d="M3.43675 0H2.52734V0.957859H3.43675V0Z" fill="#333333"/>
<path d="M2.16986 0H1.26562V0.957859H2.16986V0Z" fill="#333333"/>
<path d="M8.47972 0H7.57031V0.957859H8.47972V0Z" fill="#333333"/>
<path d="M9.73872 0V0.957859H8.83193L8.82422 0H9.73872Z" fill="#333333"/>
<path d="M10.9993 1.33984L10.9942 2.3059H10.0977V1.33984H10.9993Z" fill="#333333"/>
<path d="M9.73882 1.33984L9.73372 2.3059L8.83203 2.2977V1.33984H9.73882Z" fill="#333333"/>
<path d="M8.472 1.33984H7.57031V2.3059H8.472V1.33984Z" fill="#333333"/>
<path d="M7.218 1.33984H6.30859V2.3059H7.218V1.33984Z" fill="#333333"/>
<path d="M4.69847 1.33984H3.78906V2.3059H4.69847V1.33984Z" fill="#333333"/>
<path d="M3.43675 1.33984H2.52734V2.3059H3.43675V1.33984Z" fill="#333333"/>
<path d="M2.17112 1.33984V2.2977L1.26172 2.3059V1.33984H2.17112Z" fill="#333333"/>
<path d="M0.917216 2.3059H0.0078125V1.33984H0.901788L0.917216 2.3059Z" fill="#333333"/>
<path d="M0.917118 3.64574H0V2.67969H0.901689L0.917118 3.64574Z" fill="#333333"/>
<path d="M2.16993 2.67969V3.63755L1.26562 3.64574V2.67969H2.16993Z" fill="#333333"/>
<path d="M3.42903 2.67969H2.52734V3.64574H3.42903V2.67969Z" fill="#333333"/>
<path d="M4.69847 2.67969H3.78906V3.64574H4.69847V2.67969Z" fill="#333333"/>
<path d="M5.95823 2.67969V3.64574L5.04883 3.63755L5.05654 2.67969H5.95823Z" fill="#333333"/>
<path d="M7.218 2.67969V3.64574L6.30859 3.63755V2.67969H7.218Z" fill="#333333"/>
<path d="M8.47965 2.67969L8.47194 3.64574H7.57031V2.67969H8.47965Z" fill="#333333"/>
<path d="M9.73882 2.67969V3.64574L8.83203 3.63755L8.83713 2.67969H9.73882Z" fill="#333333"/>
<path d="M10.9993 2.67969V3.63755L10.0977 3.64574V2.67969H10.9993Z" fill="#333333"/>
<path d="M9.73888 4.0166H8.83203V4.98265H9.73888V4.0166Z" fill="#333333"/>
<path d="M8.47965 4.0166L8.47194 4.98259H7.57031V4.0166H8.47965Z" fill="#333333"/>
<path d="M7.218 4.0166H6.30859V4.98265H7.218V4.0166Z" fill="#333333"/>
<path d="M5.95628 4.0166V4.98259H5.04688L5.05459 4.0166H5.95628Z" fill="#333333"/>
<path d="M2.16986 4.0166H1.26562V4.98265H2.16986V4.0166Z" fill="#333333"/>
<path d="M4.69847 4.0166H3.78906V4.98265H4.69847V4.0166Z" fill="#333333"/>
<path d="M3.43675 4.0166H2.52734V4.98265H3.43675V4.0166Z" fill="#333333"/>
<path d="M4.69847 5.35645H3.78906V6.3225H4.69847V5.35645Z" fill="#333333"/>
<path d="M3.43675 5.35645H2.52734V6.3225H3.43675V5.35645Z" fill="#333333"/>
<path d="M5.95628 5.35645H5.04688V6.3225H5.95628V5.35645Z" fill="#333333"/>
<path d="M8.47965 5.35645L8.47194 6.3225H7.57031V5.35645H8.47965Z" fill="#333333"/>
<path d="M7.218 5.35645V6.3143L6.30859 6.3225V5.35645H7.218Z" fill="#333333"/>
<path d="M7.218 6.70177V7.66234H6.30859V6.69629L7.218 6.70177Z" fill="#333333"/>
<path d="M5.95638 6.70177V7.66234H5.05469V6.69629L5.95638 6.70177Z" fill="#333333"/>
<path d="M4.69847 6.70215H3.78906V7.66272H4.69847V6.70215Z" fill="#333333"/>
<path d="M5.95823 8.03418H5.04883V9.00023H5.95823V8.03418Z" fill="#333333"/>
</g>
<defs>
<clipPath id="clip0_2116_4944">
<rect width="11" height="9" fill="white"/>
</clipPath>
</defs>
</svg>
